<svg width="558" height="192" viewBox="0 0 558 192" fill="none" xmlns="http://www.w3.org/2000/svg">
<path d="M171.742 73.6126V146.639H161.842V73.6126H171.742ZM192.621 113.9V146.639H183.162V91.8448H192.327V100.667H193.062C194.337 97.7915 196.281 95.488 198.895 93.7562C201.541 92.0245 204.923 91.1586 209.04 91.1586C212.765 91.1586 216.016 91.9265 218.793 93.4622C221.571 94.9978 223.743 97.3014 225.312 100.373C226.88 103.411 227.664 107.234 227.664 111.841V146.639H218.205V112.773C218.205 108.656 217.111 105.421 214.921 103.068C212.765 100.716 209.808 99.5396 206.05 99.5396C203.502 99.5396 201.198 100.111 199.14 101.255C197.114 102.366 195.513 103.983 194.337 106.107C193.193 108.231 192.621 110.828 192.621 113.9ZM260.6 168.302C254.294 168.302 249.311 167.126 245.651 164.774C241.992 162.454 239.378 159.742 237.81 156.638L245.7 152.374C246.387 153.419 247.302 154.547 248.445 155.756C249.589 156.997 251.124 158.059 253.052 158.941C255.013 159.823 257.545 160.265 260.649 160.265C264.897 160.265 268.393 159.252 271.137 157.226C273.915 155.2 275.303 151.965 275.303 147.522V136.592H274.568C273.947 137.67 273.049 138.928 271.873 140.366C270.729 141.804 269.112 143.062 267.02 144.14C264.929 145.218 262.136 145.757 258.639 145.757C254.261 145.757 250.34 144.728 246.877 142.669C243.413 140.611 240.652 137.589 238.594 133.602C236.568 129.616 235.555 124.764 235.555 119.046C235.555 113.328 236.552 108.394 238.545 104.245C240.538 100.062 243.283 96.8439 246.779 94.5894C250.275 92.3022 254.277 91.1586 258.787 91.1586C262.283 91.1586 265.076 91.7468 267.167 92.923C269.259 94.0666 270.876 95.3899 272.02 96.8929C273.196 98.3633 274.111 99.6212 274.764 100.667H275.597V91.8448H284.713V148.061C284.713 152.733 283.652 156.556 281.528 159.529C279.404 162.535 276.512 164.741 272.853 166.146C269.193 167.584 265.109 168.302 260.6 168.302ZM260.404 137.572C265.24 137.572 268.948 135.922 271.529 132.622C274.111 129.322 275.401 124.731 275.401 118.85C275.401 115.027 274.83 111.662 273.686 108.754C272.575 105.846 270.892 103.575 268.638 101.941C266.416 100.275 263.671 99.4415 260.404 99.4415C257.006 99.4415 254.179 100.307 251.925 102.039C249.67 103.771 247.971 106.107 246.828 109.048C245.717 111.988 245.161 115.256 245.161 118.85C245.161 122.542 245.733 125.793 246.877 128.603C248.02 131.413 249.719 133.619 251.974 135.22C254.261 136.788 257.071 137.572 260.404 137.572ZM318.482 147.816C313.156 147.816 308.549 146.639 304.661 144.287C300.773 141.934 297.783 138.651 295.692 134.436C293.634 130.188 292.604 125.254 292.604 119.634C292.604 114.014 293.634 109.08 295.692 104.833C297.75 100.552 300.642 97.2033 304.367 94.7855C308.092 92.3676 312.454 91.1586 317.453 91.1586C320.426 91.1586 323.334 91.6487 326.177 92.629C329.052 93.6092 331.634 95.1775 333.921 97.334C336.241 99.4905 338.087 102.317 339.459 105.813C340.831 109.309 341.518 113.573 341.518 118.605V122.281H298.584V114.684H336.469L332.107 117.38C332.107 113.884 331.552 110.779 330.441 108.068C329.363 105.356 327.729 103.232 325.54 101.696C323.383 100.128 320.688 99.3435 317.453 99.3435C314.251 99.3435 311.49 100.128 309.17 101.696C306.883 103.232 305.135 105.274 303.926 107.822C302.717 110.371 302.112 113.116 302.112 116.056V121.154C302.112 125.107 302.799 128.473 304.171 131.25C305.543 133.994 307.455 136.086 309.905 137.523C312.389 138.928 315.248 139.631 318.482 139.631C320.606 139.631 322.534 139.337 324.266 138.749C325.997 138.128 327.484 137.197 328.726 135.955C329.967 134.713 330.931 133.194 331.617 131.397L340.684 133.504C339.868 136.347 338.43 138.847 336.371 141.003C334.346 143.127 331.813 144.793 328.775 146.002C325.736 147.211 322.305 147.816 318.482 147.816ZM358.672 113.9V146.639H349.212V91.8448H358.377V100.667H359.113C360.387 97.7915 362.331 95.488 364.945 93.7562C367.592 92.0245 370.973 91.1586 375.09 91.1586C378.815 91.1586 382.066 91.9265 384.844 93.4622C387.621 94.9978 389.794 97.3014 391.362 100.373C392.93 103.411 393.715 107.234 393.715 111.841V146.639H384.255V112.773C384.255 108.656 383.161 105.421 380.972 103.068C378.815 100.716 375.858 99.5396 372.101 99.5396C369.552 99.5396 367.249 100.111 365.19 101.255C363.164 102.366 361.563 103.983 360.387 106.107C359.243 108.231 358.672 110.828 358.672 113.9ZM404.203 146.639V91.8448H413.662V146.639H404.203ZM408.957 83.0718C407.225 83.0718 405.739 82.4836 404.497 81.3073C403.255 80.1311 402.635 78.7098 402.635 77.0434C402.635 75.4097 403.255 74.0047 404.497 72.8284C405.739 71.6521 407.225 71.064 408.957 71.064C410.689 71.064 412.176 71.6521 413.417 72.8284C414.691 74.0047 415.329 75.4097 415.329 77.0434C415.329 78.7098 414.691 80.1311 413.417 81.3073C412.176 82.4836 410.689 83.0718 408.957 83.0718ZM458.704 124.143V91.8448H468.163V146.639H458.802V137.229H458.213C456.906 140.072 454.897 142.473 452.185 144.434C449.473 146.394 446.042 147.358 441.893 147.326C438.429 147.326 435.358 146.574 432.679 145.071C429.999 143.535 427.892 141.232 426.356 138.16C424.853 135.089 424.102 131.25 424.102 126.643V91.8448H433.561V125.81C433.561 129.632 434.639 132.704 436.796 135.024C438.985 137.311 441.778 138.438 445.176 138.406C447.235 138.406 449.293 137.899 451.352 136.886C453.443 135.873 455.191 134.305 456.596 132.181C458.001 130.057 458.704 127.378 458.704 124.143ZM478.602 146.639V91.8448H487.669V100.667H488.453C489.597 97.6608 491.443 95.3246 493.992 93.6582C496.573 91.9918 499.661 91.1586 503.255 91.1586C506.849 91.1586 509.871 91.9918 512.322 93.6582C514.772 95.3246 516.619 97.6608 517.86 100.667H518.448C519.853 97.7588 521.961 95.4553 524.771 93.7562C527.581 92.0245 530.946 91.1586 534.867 91.1586C539.801 91.1586 543.836 92.7106 546.973 95.8147C550.142 98.8861 551.727 103.591 551.727 109.93V146.639H542.17V110.42C542.17 106.532 541.108 103.755 538.984 102.088C536.86 100.389 534.344 99.5396 531.436 99.5396C527.777 99.5396 524.934 100.667 522.908 102.921C520.915 105.143 519.919 107.937 519.919 111.302V146.639H510.312V109.636C510.312 106.597 509.349 104.163 507.421 102.333C505.493 100.471 502.993 99.5396 499.922 99.5396C497.798 99.5396 495.838 100.095 494.041 101.206C492.244 102.317 490.79 103.869 489.679 105.862C488.6 107.822 488.061 110.093 488.061 112.675V146.639H478.602Z" fill="white"/>
<path d="M303.59 172.639L300.494 162.085H302.608L304.676 169.836H304.789L306.856 162.085H308.981L311.029 169.807H311.133L313.191 162.085H315.305L312.209 172.639H310.123L307.97 165.031H307.829L305.676 172.639H303.59ZM318.496 166.381V172.639H316.457V158.574H318.468V163.822H318.609C318.855 163.25 319.229 162.797 319.733 162.463C320.243 162.123 320.907 161.953 321.725 161.953C322.448 161.953 323.081 162.101 323.622 162.397C324.163 162.693 324.585 163.136 324.887 163.728C325.195 164.32 325.35 165.056 325.35 165.937V172.639H323.292V166.182C323.292 165.402 323.09 164.798 322.688 164.37C322.291 163.942 321.737 163.728 321.026 163.728C320.535 163.728 320.101 163.835 319.723 164.049C319.346 164.257 319.047 164.556 318.827 164.946C318.606 165.336 318.496 165.814 318.496 166.381ZM331.854 172.857C330.822 172.857 329.928 172.633 329.173 172.186C328.418 171.739 327.836 171.11 327.426 170.298C327.024 169.48 326.822 168.527 326.822 167.438C326.822 166.355 327.021 165.402 327.417 164.578C327.82 163.753 328.383 163.111 329.107 162.652C329.837 162.186 330.693 161.953 331.675 161.953C332.272 161.953 332.851 162.051 333.411 162.246C333.972 162.441 334.475 162.749 334.922 163.171C335.369 163.593 335.721 164.14 335.979 164.814C336.244 165.487 336.376 166.299 336.376 167.249V167.985H327.983V166.447H335.318L334.365 166.956C334.365 166.308 334.264 165.736 334.063 165.238C333.861 164.741 333.559 164.354 333.157 164.077C332.76 163.794 332.266 163.652 331.675 163.652C331.083 163.652 330.576 163.794 330.155 164.077C329.739 164.36 329.421 164.735 329.201 165.201C328.981 165.666 328.871 166.176 328.871 166.73V167.778C328.871 168.501 328.997 169.115 329.248 169.619C329.5 170.122 329.849 170.506 330.296 170.77C330.749 171.035 331.275 171.167 331.873 171.167C332.263 171.167 332.615 171.11 332.93 170.997C333.251 170.884 333.528 170.714 333.761 170.487C333.994 170.26 334.17 169.98 334.289 169.647L336.234 170.015C336.077 170.581 335.8 171.079 335.403 171.507C335.007 171.935 334.507 172.268 333.902 172.507C333.305 172.74 332.622 172.857 331.854 172.857ZM337.811 172.639V162.085H339.784V163.775H339.897C340.092 163.209 340.432 162.762 340.916 162.435C341.407 162.101 341.961 161.934 342.578 161.934C342.704 161.934 342.852 161.941 343.022 161.953C343.198 161.96 343.339 161.969 343.446 161.982V163.945C343.365 163.92 343.217 163.895 343.003 163.87C342.795 163.844 342.584 163.832 342.37 163.832C341.886 163.832 341.451 163.936 341.067 164.143C340.69 164.345 340.391 164.625 340.171 164.983C339.957 165.336 339.85 165.745 339.85 166.211V172.639H337.811ZM348.601 172.857C347.569 172.857 346.675 172.633 345.92 172.186C345.164 171.739 344.582 171.11 344.173 170.298C343.77 169.48 343.569 168.527 343.569 167.438C343.569 166.355 343.767 165.402 344.164 164.578C344.567 163.753 345.13 163.111 345.854 162.652C346.584 162.186 347.439 161.953 348.421 161.953C349.019 161.953 349.598 162.051 350.158 162.246C350.718 162.441 351.222 162.749 351.669 163.171C352.115 163.593 352.468 164.14 352.726 164.814C352.99 165.487 353.122 166.299 353.122 167.249V167.985H344.73V166.447H352.065L351.112 166.956C351.112 166.308 351.011 165.736 350.81 165.238C350.608 164.741 350.306 164.354 349.903 164.077C349.507 163.794 349.013 163.652 348.421 163.652C347.83 163.652 347.323 163.794 346.901 164.077C346.486 164.36 346.168 164.735 345.948 165.201C345.728 165.666 345.618 166.176 345.618 166.73V167.778C345.618 168.501 345.743 169.115 345.995 169.619C346.247 170.122 346.596 170.506 347.043 170.77C347.496 171.035 348.022 171.167 348.619 171.167C349.01 171.167 349.362 171.11 349.677 170.997C349.998 170.884 350.275 170.714 350.508 170.487C350.74 170.26 350.917 169.98 351.036 169.647L352.981 170.015C352.823 170.581 352.547 171.079 352.15 171.507C351.754 171.935 351.253 172.268 350.649 172.507C350.051 172.74 349.368 172.857 348.601 172.857ZM358.862 172.639V162.085H360.901V172.639H358.862ZM359.891 160.462C359.532 160.462 359.227 160.342 358.975 160.103C358.724 159.864 358.598 159.577 358.598 159.244C358.598 158.904 358.724 158.615 358.975 158.375C359.227 158.136 359.532 158.017 359.891 158.017C360.243 158.017 360.545 158.136 360.797 158.375C361.055 158.615 361.184 158.904 361.184 159.244C361.184 159.577 361.055 159.864 360.797 160.103C360.545 160.342 360.243 160.462 359.891 160.462ZM364.904 166.381V172.639H362.865V162.085H364.847V163.822H364.989C365.228 163.25 365.602 162.797 366.112 162.463C366.622 162.123 367.276 161.953 368.076 161.953C368.793 161.953 369.419 162.104 369.954 162.406C370.495 162.702 370.914 163.146 371.21 163.737C371.512 164.329 371.663 165.062 371.663 165.937V172.639H369.624V166.182C369.624 165.421 369.422 164.823 369.02 164.389C368.617 163.948 368.069 163.728 367.377 163.728C366.905 163.728 366.48 163.835 366.103 164.049C365.731 164.257 365.439 164.556 365.225 164.946C365.011 165.336 364.904 165.814 364.904 166.381ZM375.665 166.381V172.639H373.626V162.085H375.609V163.822H375.75C375.99 163.25 376.364 162.797 376.874 162.463C377.383 162.123 378.038 161.953 378.837 161.953C379.555 161.953 380.181 162.104 380.716 162.406C381.257 162.702 381.676 163.146 381.971 163.737C382.273 164.329 382.425 165.062 382.425 165.937V172.639H380.385V166.182C380.385 165.421 380.184 164.823 379.781 164.389C379.379 163.948 378.831 163.728 378.139 163.728C377.667 163.728 377.242 163.835 376.864 164.049C376.493 164.257 376.2 164.556 375.986 164.946C375.772 165.336 375.665 165.814 375.665 166.381ZM388.815 172.857C387.827 172.857 386.962 172.63 386.219 172.177C385.483 171.724 384.91 171.088 384.501 170.27C384.099 169.452 383.897 168.501 383.897 167.419C383.897 166.324 384.099 165.367 384.501 164.549C384.91 163.725 385.483 163.086 386.219 162.633C386.962 162.18 387.827 161.953 388.815 161.953C389.81 161.953 390.675 162.18 391.411 162.633C392.148 163.086 392.721 163.725 393.13 164.549C393.539 165.367 393.743 166.324 393.743 167.419C393.743 168.501 393.539 169.452 393.13 170.27C392.721 171.088 392.148 171.724 391.411 172.177C390.675 172.63 389.81 172.857 388.815 172.857ZM388.815 171.129C389.464 171.129 389.999 170.959 390.42 170.619C390.842 170.279 391.153 169.829 391.355 169.269C391.563 168.703 391.666 168.086 391.666 167.419C391.666 166.739 391.563 166.116 391.355 165.55C391.153 164.983 390.842 164.53 390.42 164.191C389.999 163.851 389.464 163.681 388.815 163.681C388.174 163.681 387.642 163.851 387.22 164.191C386.805 164.53 386.493 164.983 386.286 165.55C386.078 166.116 385.974 166.739 385.974 167.419C385.974 168.086 386.078 168.703 386.286 169.269C386.493 169.829 386.805 170.279 387.22 170.619C387.642 170.959 388.174 171.129 388.815 171.129ZM403.872 162.085L400.059 172.639H397.85L394.026 162.085H396.226L398.907 170.223H399.02L401.682 162.085H403.872ZM407.743 172.866C407.076 172.866 406.472 172.743 405.93 172.498C405.389 172.246 404.961 171.881 404.647 171.403C404.332 170.924 404.175 170.342 404.175 169.656C404.175 169.058 404.288 168.571 404.514 168.193C404.747 167.809 405.059 167.504 405.449 167.277C405.839 167.051 406.273 166.881 406.752 166.768C407.23 166.654 407.721 166.566 408.224 166.503C408.86 166.434 409.373 166.374 409.763 166.324C410.153 166.274 410.436 166.195 410.613 166.088C410.795 165.975 410.886 165.795 410.886 165.55V165.503C410.886 164.905 410.716 164.442 410.377 164.115C410.043 163.788 409.546 163.624 408.885 163.624C408.199 163.624 407.655 163.775 407.252 164.077C406.855 164.373 406.582 164.71 406.431 165.087L404.495 164.644C404.728 164.002 405.065 163.486 405.506 163.095C405.952 162.699 406.462 162.409 407.035 162.227C407.614 162.044 408.218 161.953 408.847 161.953C409.269 161.953 409.716 162.004 410.188 162.104C410.66 162.199 411.104 162.378 411.519 162.642C411.941 162.9 412.284 163.272 412.548 163.756C412.812 164.241 412.944 164.867 412.944 165.635V172.639H410.934V171.195H410.858C410.732 171.453 410.534 171.711 410.263 171.969C409.999 172.227 409.659 172.441 409.244 172.611C408.828 172.781 408.328 172.866 407.743 172.866ZM408.187 171.223C408.759 171.223 409.247 171.113 409.65 170.893C410.053 170.666 410.361 170.371 410.575 170.006C410.789 169.641 410.896 169.254 410.896 168.844V167.476C410.82 167.545 410.679 167.611 410.471 167.674C410.263 167.737 410.027 167.79 409.763 167.834C409.499 167.878 409.241 167.919 408.989 167.957C408.737 167.989 408.526 168.014 408.356 168.033C407.96 168.089 407.598 168.177 407.271 168.297C406.944 168.41 406.679 168.58 406.478 168.807C406.283 169.027 406.185 169.32 406.185 169.685C406.185 170.194 406.374 170.578 406.752 170.836C407.129 171.094 407.608 171.223 408.187 171.223ZM419.826 162.085V163.737H414.068V162.085H419.826ZM415.606 159.574H417.655V169.543C417.655 170.028 417.756 170.383 417.957 170.61C418.158 170.83 418.483 170.94 418.929 170.94C419.036 170.94 419.15 170.934 419.269 170.921C419.395 170.909 419.521 170.89 419.647 170.865L420.034 172.564C419.826 172.633 419.6 172.687 419.354 172.724C419.109 172.762 418.863 172.781 418.618 172.781C417.705 172.781 416.975 172.526 416.428 172.016C415.88 171.5 415.606 170.814 415.606 169.958V159.574ZM421.299 172.639V162.085H423.338V172.639H421.299ZM422.328 160.462C421.969 160.462 421.664 160.342 421.412 160.103C421.16 159.864 421.035 159.577 421.035 159.244C421.035 158.904 421.16 158.615 421.412 158.375C421.664 158.136 421.969 158.017 422.328 158.017C422.68 158.017 422.982 158.136 423.234 158.375C423.492 158.615 423.621 158.904 423.621 159.244C423.621 159.577 423.492 159.864 423.234 160.103C422.982 160.342 422.68 160.462 422.328 160.462ZM429.729 172.857C428.741 172.857 427.875 172.63 427.133 172.177C426.397 171.724 425.824 171.088 425.415 170.27C425.012 169.452 424.811 168.501 424.811 167.419C424.811 166.324 425.012 165.367 425.415 164.549C425.824 163.725 426.397 163.086 427.133 162.633C427.875 162.18 428.741 161.953 429.729 161.953C430.723 161.953 431.589 162.18 432.325 162.633C433.061 163.086 433.634 163.725 434.043 164.549C434.452 165.367 434.657 166.324 434.657 167.419C434.657 168.501 434.452 169.452 434.043 170.27C433.634 171.088 433.061 171.724 432.325 172.177C431.589 172.63 430.723 172.857 429.729 172.857ZM429.729 171.129C430.377 171.129 430.912 170.959 431.334 170.619C431.755 170.279 432.067 169.829 432.268 169.269C432.476 168.703 432.58 168.086 432.58 167.419C432.58 166.739 432.476 166.116 432.268 165.55C432.067 164.983 431.755 164.53 431.334 164.191C430.912 163.851 430.377 163.681 429.729 163.681C429.087 163.681 428.555 163.851 428.133 164.191C427.718 164.53 427.407 164.983 427.199 165.55C426.991 166.116 426.887 166.739 426.887 167.419C426.887 168.086 426.991 168.703 427.199 169.269C427.407 169.829 427.718 170.279 428.133 170.619C428.555 170.959 429.087 171.129 429.729 171.129ZM438.178 166.381V172.639H436.139V162.085H438.121V163.822H438.263C438.502 163.25 438.876 162.797 439.386 162.463C439.896 162.123 440.55 161.953 441.35 161.953C442.067 161.953 442.693 162.104 443.228 162.406C443.769 162.702 444.188 163.146 444.484 163.737C444.786 164.329 444.937 165.062 444.937 165.937V172.639H442.898V166.182C442.898 165.421 442.696 164.823 442.294 164.389C441.891 163.948 441.343 163.728 440.651 163.728C440.179 163.728 439.754 163.835 439.377 164.049C439.005 164.257 438.713 164.556 438.499 164.946C438.285 165.336 438.178 165.814 438.178 166.381ZM451.205 172.639V162.085H453.244V172.639H451.205ZM452.234 160.462C451.875 160.462 451.57 160.342 451.318 160.103C451.067 159.864 450.941 159.577 450.941 159.244C450.941 158.904 451.067 158.615 451.318 158.375C451.57 158.136 451.875 158.017 452.234 158.017C452.586 158.017 452.889 158.136 453.14 158.375C453.398 158.615 453.527 158.904 453.527 159.244C453.527 159.577 453.398 159.864 453.14 160.103C452.889 160.342 452.586 160.462 452.234 160.462ZM463.1 164.672L461.24 164.993C461.12 164.64 460.897 164.316 460.57 164.021C460.249 163.725 459.767 163.577 459.125 163.577C458.546 163.577 458.062 163.709 457.672 163.973C457.288 164.231 457.096 164.562 457.096 164.965C457.096 165.317 457.225 165.603 457.483 165.824C457.747 166.044 458.166 166.22 458.738 166.352L460.428 166.73C461.391 166.95 462.112 167.296 462.59 167.768C463.068 168.24 463.307 168.844 463.307 169.581C463.307 170.216 463.125 170.783 462.76 171.28C462.395 171.771 461.888 172.158 461.24 172.441C460.592 172.718 459.843 172.857 458.993 172.857C457.81 172.857 456.847 172.602 456.105 172.092C455.362 171.582 454.906 170.865 454.736 169.94L456.709 169.637C456.835 170.154 457.089 170.544 457.473 170.808C457.864 171.072 458.367 171.205 458.984 171.205C459.651 171.205 460.186 171.063 460.589 170.78C460.998 170.497 461.202 170.154 461.202 169.751C461.202 169.084 460.705 168.634 459.711 168.401L457.926 168.004C456.938 167.778 456.208 167.422 455.736 166.938C455.271 166.447 455.038 165.83 455.038 165.087C455.038 164.464 455.211 163.917 455.557 163.445C455.909 162.973 456.391 162.608 457.001 162.35C457.618 162.085 458.32 161.953 459.106 161.953C460.252 161.953 461.149 162.202 461.797 162.699C462.451 163.196 462.886 163.854 463.1 164.672ZM473.588 172.857C472.555 172.857 471.662 172.633 470.907 172.186C470.151 171.739 469.569 171.11 469.16 170.298C468.757 169.48 468.556 168.527 468.556 167.438C468.556 166.355 468.754 165.402 469.151 164.578C469.554 163.753 470.117 163.111 470.841 162.652C471.571 162.186 472.426 161.953 473.408 161.953C474.006 161.953 474.585 162.051 475.145 162.246C475.705 162.441 476.209 162.749 476.656 163.171C477.102 163.593 477.455 164.14 477.713 164.814C477.977 165.487 478.109 166.299 478.109 167.249V167.985H469.717V166.447H477.052L476.099 166.956C476.099 166.308 475.998 165.736 475.797 165.238C475.595 164.741 475.293 164.354 474.89 164.077C474.494 163.794 474 163.652 473.408 163.652C472.817 163.652 472.31 163.794 471.888 164.077C471.473 164.36 471.155 164.735 470.935 165.201C470.715 165.666 470.605 166.176 470.605 166.73V167.778C470.605 168.501 470.73 169.115 470.982 169.619C471.234 170.122 471.583 170.506 472.03 170.77C472.483 171.035 473.009 171.167 473.606 171.167C473.997 171.167 474.349 171.11 474.664 170.997C474.985 170.884 475.262 170.714 475.494 170.487C475.727 170.26 475.904 169.98 476.023 169.647L477.968 170.015C477.81 170.581 477.534 171.079 477.137 171.507C476.741 171.935 476.24 172.268 475.636 172.507C475.038 172.74 474.355 172.857 473.588 172.857ZM483.471 172.847C482.615 172.847 481.854 172.63 481.187 172.196C480.52 171.755 479.997 171.129 479.62 170.317C479.242 169.499 479.053 168.524 479.053 167.391C479.053 166.245 479.245 165.267 479.629 164.455C480.013 163.643 480.539 163.023 481.206 162.595C481.873 162.167 482.628 161.953 483.471 161.953C484.132 161.953 484.661 162.063 485.057 162.284C485.46 162.498 485.772 162.749 485.992 163.039C486.218 163.328 486.392 163.583 486.511 163.803H486.634V158.574H488.673V172.639H486.681V170.997H486.511C486.392 171.217 486.215 171.472 485.982 171.761C485.75 172.051 485.432 172.306 485.029 172.526C484.633 172.74 484.113 172.847 483.471 172.847ZM483.915 171.101C484.507 171.101 485.007 170.943 485.416 170.629C485.825 170.314 486.133 169.877 486.341 169.316C486.555 168.756 486.662 168.108 486.662 167.372C486.662 166.635 486.558 165.994 486.351 165.446C486.143 164.892 485.835 164.464 485.425 164.162C485.016 163.854 484.513 163.7 483.915 163.7C483.298 163.7 482.785 163.86 482.376 164.181C481.967 164.502 481.659 164.939 481.451 165.493C481.244 166.047 481.14 166.673 481.14 167.372C481.14 168.077 481.244 168.712 481.451 169.279C481.659 169.839 481.967 170.283 482.376 170.61C482.792 170.937 483.305 171.101 483.915 171.101ZM497.329 168.278V162.085H499.369V172.639H497.367V170.808H497.254C497.002 171.368 496.612 171.837 496.083 172.215C495.555 172.592 494.894 172.778 494.101 172.772C493.421 172.772 492.82 172.624 492.298 172.328C491.782 172.032 491.376 171.588 491.08 170.997C490.791 170.405 490.646 169.672 490.646 168.797V162.085H492.685V168.561C492.685 169.272 492.886 169.842 493.289 170.27C493.692 170.698 494.211 170.909 494.847 170.902C495.231 170.902 495.611 170.808 495.989 170.619C496.373 170.43 496.691 170.141 496.942 169.751C497.2 169.361 497.329 168.87 497.329 168.278ZM505.759 172.857C504.746 172.857 503.871 172.624 503.135 172.158C502.399 171.692 501.832 171.05 501.436 170.232C501.039 169.414 500.841 168.476 500.841 167.419C500.841 166.343 501.043 165.396 501.445 164.578C501.854 163.753 502.424 163.111 503.154 162.652C503.89 162.186 504.753 161.953 505.741 161.953C506.546 161.953 507.26 162.101 507.883 162.397C508.513 162.686 509.019 163.099 509.403 163.634C509.794 164.168 510.023 164.792 510.092 165.503H508.091C508.022 165.169 507.887 164.864 507.685 164.587C507.49 164.31 507.232 164.09 506.911 163.926C506.59 163.763 506.209 163.681 505.769 163.681C505.196 163.681 504.696 163.832 504.268 164.134C503.846 164.43 503.516 164.854 503.277 165.408C503.038 165.962 502.918 166.617 502.918 167.372C502.918 168.133 503.034 168.797 503.267 169.364C503.5 169.93 503.831 170.367 504.258 170.676C504.693 170.978 505.196 171.129 505.769 171.129C506.36 171.129 506.864 170.965 507.279 170.638C507.701 170.311 507.972 169.864 508.091 169.298H510.092C510.023 169.984 509.803 170.594 509.432 171.129C509.06 171.664 508.563 172.086 507.94 172.394C507.317 172.702 506.59 172.857 505.759 172.857ZM514.605 172.866C513.938 172.866 513.334 172.743 512.792 172.498C512.251 172.246 511.823 171.881 511.508 171.403C511.194 170.924 511.036 170.342 511.036 169.656C511.036 169.058 511.15 168.571 511.376 168.193C511.609 167.809 511.921 167.504 512.311 167.277C512.701 167.051 513.135 166.881 513.614 166.768C514.092 166.654 514.583 166.566 515.086 166.503C515.722 166.434 516.235 166.374 516.625 166.324C517.015 166.274 517.298 166.195 517.475 166.088C517.657 165.975 517.748 165.795 517.748 165.55V165.503C517.748 164.905 517.578 164.442 517.239 164.115C516.905 163.788 516.408 163.624 515.747 163.624C515.061 163.624 514.517 163.775 514.114 164.077C513.717 164.373 513.444 164.71 513.293 165.087L511.357 164.644C511.59 164.002 511.927 163.486 512.368 163.095C512.814 162.699 513.324 162.409 513.897 162.227C514.476 162.044 515.08 161.953 515.709 161.953C516.131 161.953 516.578 162.004 517.05 162.104C517.522 162.199 517.966 162.378 518.381 162.642C518.803 162.9 519.146 163.272 519.41 163.756C519.674 164.241 519.806 164.867 519.806 165.635V172.639H517.796V171.195H517.72C517.594 171.453 517.396 171.711 517.125 171.969C516.861 172.227 516.521 172.441 516.106 172.611C515.69 172.781 515.19 172.866 514.605 172.866ZM515.049 171.223C515.621 171.223 516.109 171.113 516.512 170.893C516.915 170.666 517.223 170.371 517.437 170.006C517.651 169.641 517.758 169.254 517.758 168.844V167.476C517.682 167.545 517.541 167.611 517.333 167.674C517.125 167.737 516.889 167.79 516.625 167.834C516.361 167.878 516.103 167.919 515.851 167.957C515.599 167.989 515.388 168.014 515.218 168.033C514.822 168.089 514.46 168.177 514.133 168.297C513.806 168.41 513.541 168.58 513.34 168.807C513.145 169.027 513.047 169.32 513.047 169.685C513.047 170.194 513.236 170.578 513.614 170.836C513.991 171.094 514.47 171.223 515.049 171.223ZM526.688 162.085V163.737H520.93V162.085H526.688ZM522.468 159.574H524.517V169.543C524.517 170.028 524.618 170.383 524.819 170.61C525.02 170.83 525.345 170.94 525.791 170.94C525.898 170.94 526.012 170.934 526.131 170.921C526.257 170.909 526.383 170.89 526.509 170.865L526.896 172.564C526.688 172.633 526.462 172.687 526.216 172.724C525.971 172.762 525.725 172.781 525.48 172.781C524.567 172.781 523.837 172.526 523.29 172.016C522.742 171.5 522.468 170.814 522.468 169.958V159.574ZM528.161 172.639V162.085H530.2V172.639H528.161ZM529.19 160.462C528.831 160.462 528.526 160.342 528.274 160.103C528.022 159.864 527.896 159.577 527.896 159.244C527.896 158.904 528.022 158.615 528.274 158.375C528.526 158.136 528.831 158.017 529.19 158.017C529.542 158.017 529.844 158.136 530.096 158.375C530.354 158.615 530.483 158.904 530.483 159.244C530.483 159.577 530.354 159.864 530.096 160.103C529.844 160.342 529.542 160.462 529.19 160.462ZM536.591 172.857C535.603 172.857 534.737 172.63 533.995 172.177C533.258 171.724 532.686 171.088 532.277 170.27C531.874 169.452 531.673 168.501 531.673 167.419C531.673 166.324 531.874 165.367 532.277 164.549C532.686 163.725 533.258 163.086 533.995 162.633C534.737 162.18 535.603 161.953 536.591 161.953C537.585 161.953 538.451 162.18 539.187 162.633C539.923 163.086 540.496 163.725 540.905 164.549C541.314 165.367 541.519 166.324 541.519 167.419C541.519 168.501 541.314 169.452 540.905 170.27C540.496 171.088 539.923 171.724 539.187 172.177C538.451 172.63 537.585 172.857 536.591 172.857ZM536.591 171.129C537.239 171.129 537.774 170.959 538.196 170.619C538.617 170.279 538.929 169.829 539.13 169.269C539.338 168.703 539.442 168.086 539.442 167.419C539.442 166.739 539.338 166.116 539.13 165.55C538.929 164.983 538.617 164.53 538.196 164.191C537.774 163.851 537.239 163.681 536.591 163.681C535.949 163.681 535.417 163.851 534.995 164.191C534.58 164.53 534.269 164.983 534.061 165.55C533.853 166.116 533.749 166.739 533.749 167.419C533.749 168.086 533.853 168.703 534.061 169.269C534.269 169.829 534.58 170.279 534.995 170.619C535.417 170.959 535.949 171.129 536.591 171.129ZM545.04 166.381V172.639H543.001V162.085H544.983V163.822H545.125C545.364 163.25 545.738 162.797 546.248 162.463C546.758 162.123 547.412 161.953 548.212 161.953C548.929 161.953 549.555 162.104 550.09 162.406C550.631 162.702 551.05 163.146 551.346 163.737C551.648 164.329 551.799 165.062 551.799 165.937V172.639H549.76V166.182C549.76 165.421 549.558 164.823 549.156 164.389C548.753 163.948 548.205 163.728 547.513 163.728C547.041 163.728 546.616 163.835 546.239 164.049C545.867 164.257 545.575 164.556 545.361 164.946C545.147 165.336 545.04 165.814 545.04 166.381Z" fill="white"/>
<path d="M44.542 84.9899L84.996 84.9899C84.996 84.9899 110.221 103.852 113.937 107.133" stroke="white" stroke-width="10.2051"/>
<path fill-rule="evenodd" clip-rule="evenodd" d="M115.496 114.532C116.58 113.99 117.543 113.156 118.255 112.06C120.349 108.838 119.492 104.566 116.341 102.517C113.19 100.469 108.937 101.42 106.843 104.642C106.313 105.458 105.972 106.341 105.809 107.238L115.496 114.532Z" fill="white"/>
<path d="M108.494 81.2803L140.47 39.0991L206.463 39.0991" stroke="white" stroke-width="10.2051"/>
<path fill-rule="evenodd" clip-rule="evenodd" d="M114.876 42.4866C108.852 40.2948 102.349 39.0992 95.5675 39.0992C64.3809 39.0992 39.0991 64.381 39.0991 95.5676C39.0991 126.754 64.3809 152.036 95.5675 152.036C109.746 152.036 122.704 146.81 132.621 138.18L127.276 134.155C118.828 141.078 108.023 145.233 96.248 145.233C69.1945 145.233 47.2633 123.301 47.2633 96.248C47.2633 69.1945 69.1945 47.2633 96.248 47.2633C100.964 47.2633 105.525 47.9298 109.84 49.1738L114.876 42.4866Z" fill="white"/>
<path d="M77.1983 20.724L79.9197 1L90.1248 1H107.133L109.855 20.724L77.1983 20.724Z" fill="white" stroke="white" stroke-width="1.36068"/>
<path d="M79.9197 190.809L77.1984 171.085H109.855L107.133 190.809H96.9283H79.9197Z" fill="white" stroke="white" stroke-width="1.36068"/>
<path d="M20.724 112.576L1 109.855V99.6497V82.6412L20.724 79.9198V112.576Z" fill="white" stroke="white" stroke-width="1.36068"/>
<path d="M29.9147 54.3668L17.892 38.4956L25.1081 31.2795L37.135 19.2526L53.0062 31.2753L29.9147 54.3668Z" fill="white" stroke="white" stroke-width="1.36068"/>
<path d="M54.3668 161.521L38.4956 173.543L31.2795 166.327L19.2526 154.3L31.2753 138.429L54.3668 161.521Z" fill="white" stroke="white" stroke-width="1.36068"/>
<path fill-rule="evenodd" clip-rule="evenodd" d="M128.402 24.5305C118.417 19.9078 107.294 17.3282 95.5676 17.3282C52.3572 17.3282 17.3282 52.3572 17.3282 95.5676C17.3282 138.778 52.3572 173.807 95.5676 173.807C116.503 173.807 135.518 165.584 149.56 152.192L138.511 143.872C127.094 154.029 112.051 160.2 95.5675 160.2C59.872 160.2 30.9351 131.263 30.9351 95.5675C30.9351 59.872 59.872 30.9351 95.5675 30.9351C104.208 30.9351 112.452 32.6304 119.985 35.7067L128.402 24.5305Z" fill="white"/>
<path d="M108.681 108.449L108.603 108.567L108.581 108.552L108.579 108.444L108.578 108.444L108.529 108.518L108.504 108.501L108.583 108.383L108.604 108.398L108.606 108.506L108.607 108.506L108.656 108.432L108.681 108.449ZM108.661 108.608C108.652 108.602 108.646 108.595 108.642 108.587C108.638 108.579 108.637 108.57 108.638 108.561C108.639 108.552 108.642 108.543 108.648 108.534C108.654 108.525 108.661 108.518 108.67 108.513C108.678 108.509 108.686 108.507 108.695 108.507C108.704 108.508 108.713 108.511 108.722 108.517C108.731 108.523 108.737 108.53 108.741 108.538C108.745 108.546 108.747 108.555 108.746 108.564C108.745 108.573 108.741 108.583 108.735 108.592C108.729 108.601 108.722 108.607 108.714 108.612C108.706 108.616 108.697 108.618 108.688 108.618C108.679 108.617 108.67 108.614 108.661 108.608ZM108.674 108.589C108.678 108.592 108.682 108.593 108.687 108.593C108.691 108.592 108.695 108.59 108.699 108.587C108.703 108.584 108.707 108.58 108.71 108.575C108.714 108.57 108.716 108.565 108.717 108.56C108.719 108.555 108.719 108.55 108.718 108.546C108.716 108.542 108.714 108.539 108.71 108.536C108.706 108.533 108.701 108.532 108.697 108.532C108.693 108.533 108.689 108.535 108.684 108.538C108.68 108.541 108.677 108.545 108.673 108.55C108.67 108.555 108.667 108.56 108.666 108.565C108.665 108.57 108.665 108.575 108.666 108.579C108.667 108.583 108.67 108.587 108.674 108.589ZM108.828 108.589L108.815 108.607L108.762 108.572L108.774 108.554L108.828 108.589ZM108.801 108.541L108.825 108.557L108.77 108.639C108.769 108.641 108.768 108.643 108.768 108.645C108.768 108.647 108.768 108.648 108.769 108.65C108.77 108.651 108.771 108.652 108.773 108.653C108.774 108.654 108.775 108.655 108.776 108.655C108.778 108.656 108.779 108.656 108.779 108.657L108.771 108.677C108.77 108.677 108.768 108.676 108.765 108.675C108.762 108.674 108.76 108.673 108.756 108.671C108.75 108.667 108.746 108.663 108.742 108.658C108.739 108.653 108.738 108.648 108.738 108.643C108.738 108.637 108.74 108.632 108.744 108.626L108.801 108.541ZM108.861 108.741C108.852 108.735 108.846 108.728 108.841 108.72C108.837 108.712 108.836 108.704 108.837 108.694C108.838 108.685 108.841 108.676 108.848 108.667C108.854 108.658 108.861 108.651 108.869 108.646C108.877 108.642 108.886 108.64 108.894 108.64C108.903 108.641 108.912 108.644 108.921 108.65C108.927 108.654 108.932 108.658 108.935 108.663C108.939 108.669 108.942 108.674 108.943 108.68C108.944 108.687 108.944 108.693 108.942 108.7C108.941 108.707 108.938 108.715 108.933 108.722L108.928 108.729L108.854 108.679L108.864 108.664L108.915 108.698C108.917 108.695 108.919 108.691 108.919 108.687C108.919 108.684 108.919 108.68 108.917 108.677C108.915 108.673 108.913 108.671 108.909 108.668C108.905 108.666 108.902 108.664 108.898 108.664C108.894 108.664 108.89 108.665 108.886 108.667C108.883 108.668 108.88 108.671 108.878 108.674L108.868 108.689C108.865 108.693 108.863 108.698 108.863 108.702C108.862 108.706 108.863 108.71 108.865 108.714C108.867 108.717 108.87 108.721 108.874 108.723C108.876 108.725 108.879 108.726 108.882 108.727C108.885 108.728 108.887 108.728 108.89 108.728C108.893 108.727 108.895 108.726 108.897 108.724L108.919 108.741C108.914 108.746 108.909 108.749 108.903 108.751C108.896 108.752 108.89 108.752 108.883 108.751C108.876 108.749 108.868 108.746 108.861 108.741ZM109.057 108.742L108.968 108.81L108.94 108.792L108.968 108.683L108.994 108.7L108.97 108.775L108.971 108.776L109.032 108.725L109.057 108.742ZM109.047 108.866C109.038 108.859 109.032 108.852 109.028 108.844C109.024 108.836 109.022 108.828 109.023 108.819C109.024 108.809 109.028 108.8 109.034 108.791C109.04 108.782 109.047 108.775 109.055 108.771C109.063 108.766 109.072 108.764 109.081 108.764C109.09 108.765 109.098 108.768 109.107 108.774C109.113 108.778 109.118 108.782 109.121 108.787C109.125 108.793 109.128 108.798 109.129 108.805C109.13 108.811 109.13 108.817 109.129 108.824C109.127 108.831 109.124 108.839 109.119 108.846L109.114 108.853L109.04 108.803L109.05 108.788L109.101 108.822C109.104 108.819 109.105 108.815 109.105 108.812C109.105 108.808 109.105 108.804 109.103 108.801C109.101 108.798 109.099 108.795 109.095 108.792C109.092 108.79 109.088 108.789 109.084 108.788C109.08 108.788 109.076 108.789 109.072 108.791C109.069 108.792 109.066 108.795 109.064 108.799L109.054 108.813C109.051 108.817 109.049 108.822 109.049 108.826C109.048 108.83 109.049 108.834 109.051 108.838C109.053 108.842 109.056 108.845 109.06 108.848C109.063 108.849 109.065 108.851 109.068 108.851C109.071 108.852 109.074 108.852 109.076 108.852C109.079 108.851 109.081 108.85 109.084 108.849L109.105 108.865C109.101 108.87 109.095 108.873 109.089 108.875C109.083 108.876 109.076 108.876 109.069 108.875C109.062 108.874 109.055 108.87 109.047 108.866ZM109.105 108.901L109.164 108.813L109.187 108.829L109.177 108.844L109.178 108.845C109.183 108.841 109.189 108.838 109.194 108.838C109.2 108.838 109.205 108.839 109.21 108.843C109.212 108.843 109.213 108.844 109.214 108.845C109.216 108.846 109.217 108.848 109.218 108.848L109.203 108.87C109.202 108.869 109.201 108.868 109.199 108.866C109.197 108.864 109.195 108.863 109.194 108.862C109.19 108.86 109.186 108.858 109.182 108.858C109.179 108.858 109.175 108.858 109.171 108.86C109.168 108.862 109.165 108.864 109.163 108.868L109.129 108.918L109.105 108.901ZM109.209 108.97L109.267 108.882L109.292 108.899L109.233 108.987L109.209 108.97ZM109.287 108.879C109.284 108.877 109.281 108.873 109.28 108.869C109.279 108.865 109.28 108.861 109.282 108.858C109.284 108.855 109.288 108.852 109.292 108.852C109.296 108.851 109.3 108.852 109.304 108.854C109.307 108.857 109.31 108.86 109.311 108.864C109.312 108.868 109.311 108.872 109.309 108.875C109.306 108.879 109.303 108.881 109.299 108.882C109.295 108.882 109.291 108.882 109.287 108.879ZM109.368 108.986L109.345 108.972C109.346 108.97 109.346 108.968 109.346 108.965C109.345 108.963 109.345 108.961 109.343 108.958C109.342 108.956 109.34 108.954 109.337 108.952C109.333 108.949 109.329 108.948 109.326 108.948C109.322 108.948 109.319 108.949 109.317 108.952C109.316 108.954 109.316 108.956 109.316 108.959C109.317 108.961 109.319 108.964 109.323 108.968L109.337 108.982C109.344 108.989 109.349 108.996 109.35 109.003C109.352 109.01 109.35 109.016 109.346 109.023C109.342 109.029 109.337 109.032 109.331 109.035C109.325 109.037 109.318 109.037 109.31 109.036C109.303 109.034 109.295 109.031 109.288 109.026C109.276 109.018 109.268 109.009 109.264 109C109.261 108.99 109.261 108.981 109.266 108.972L109.291 108.986C109.289 108.991 109.289 108.994 109.29 108.998C109.292 109.002 109.295 109.005 109.299 109.008C109.304 109.011 109.308 109.012 109.311 109.012C109.315 109.013 109.318 109.011 109.32 109.009C109.321 109.006 109.321 109.004 109.321 109.001C109.32 108.999 109.318 108.996 109.314 108.992L109.301 108.979C109.294 108.972 109.289 108.964 109.288 108.957C109.286 108.95 109.288 108.943 109.292 108.937C109.296 108.931 109.301 108.927 109.307 108.925C109.312 108.923 109.319 108.923 109.326 108.925C109.333 108.926 109.34 108.929 109.348 108.934C109.359 108.942 109.366 108.95 109.37 108.959C109.373 108.968 109.372 108.977 109.368 108.986ZM109.359 109.118L109.44 108.997L109.464 109.013L109.454 109.028L109.455 109.029C109.458 109.027 109.461 109.026 109.464 109.025C109.468 109.024 109.472 109.023 109.477 109.024C109.481 109.024 109.486 109.026 109.491 109.03C109.497 109.034 109.502 109.039 109.505 109.046C109.508 109.053 109.509 109.061 109.508 109.07C109.507 109.079 109.503 109.089 109.496 109.099C109.49 109.109 109.482 109.116 109.475 109.12C109.467 109.125 109.459 109.127 109.452 109.127C109.444 109.127 109.437 109.125 109.43 109.12C109.425 109.117 109.422 109.114 109.42 109.11C109.417 109.106 109.416 109.102 109.415 109.099C109.415 109.095 109.415 109.091 109.415 109.088L109.415 109.088L109.383 109.135L109.359 109.118ZM109.434 109.057C109.431 109.062 109.428 109.067 109.427 109.072C109.426 109.077 109.426 109.082 109.427 109.086C109.429 109.09 109.431 109.093 109.435 109.096C109.439 109.098 109.443 109.099 109.448 109.099C109.452 109.099 109.456 109.097 109.46 109.094C109.464 109.091 109.468 109.087 109.471 109.082C109.475 109.077 109.477 109.072 109.478 109.067C109.479 109.062 109.479 109.058 109.478 109.054C109.477 109.05 109.474 109.046 109.47 109.044C109.466 109.041 109.462 109.04 109.458 109.04C109.454 109.04 109.449 109.042 109.445 109.045C109.441 109.048 109.438 109.052 109.434 109.057ZM109.522 109.182C109.513 109.176 109.507 109.169 109.502 109.161C109.498 109.153 109.497 109.144 109.498 109.135C109.499 109.126 109.502 109.117 109.509 109.107C109.515 109.098 109.522 109.092 109.53 109.087C109.538 109.083 109.547 109.081 109.555 109.081C109.564 109.081 109.573 109.085 109.582 109.09C109.588 109.094 109.593 109.099 109.596 109.104C109.6 109.109 109.603 109.115 109.604 109.121C109.605 109.127 109.605 109.134 109.603 109.141C109.602 109.148 109.598 109.155 109.593 109.163L109.589 109.169L109.515 109.12L109.525 109.105L109.576 109.139C109.578 109.135 109.58 109.132 109.58 109.128C109.58 109.124 109.58 109.121 109.578 109.117C109.576 109.114 109.574 109.111 109.57 109.109C109.566 109.106 109.563 109.105 109.559 109.105C109.555 109.105 109.551 109.105 109.547 109.107C109.544 109.109 109.541 109.112 109.539 109.115L109.529 109.129C109.526 109.134 109.524 109.138 109.524 109.142C109.523 109.147 109.524 109.151 109.526 109.154C109.528 109.158 109.531 109.161 109.535 109.164C109.537 109.166 109.54 109.167 109.543 109.168C109.546 109.169 109.548 109.169 109.551 109.168C109.554 109.168 109.556 109.167 109.558 109.165L109.58 109.182C109.575 109.186 109.57 109.19 109.564 109.191C109.557 109.193 109.551 109.193 109.544 109.192C109.537 109.19 109.529 109.187 109.522 109.182ZM109.58 109.218L109.639 109.13L109.662 109.146L109.652 109.161L109.653 109.162C109.658 109.157 109.664 109.155 109.669 109.155C109.675 109.154 109.68 109.156 109.685 109.159C109.686 109.16 109.688 109.161 109.689 109.162C109.69 109.163 109.691 109.164 109.692 109.165L109.678 109.187C109.677 109.186 109.676 109.184 109.674 109.183C109.672 109.181 109.67 109.18 109.668 109.179C109.665 109.176 109.661 109.175 109.657 109.174C109.653 109.174 109.65 109.175 109.646 109.176C109.643 109.178 109.64 109.181 109.637 109.184L109.604 109.234L109.58 109.218ZM109.757 109.208L109.744 109.227L109.69 109.191L109.702 109.172L109.757 109.208ZM109.656 109.269L109.719 109.174C109.723 109.168 109.728 109.163 109.733 109.161C109.739 109.158 109.744 109.157 109.75 109.158C109.756 109.159 109.761 109.161 109.767 109.165C109.771 109.167 109.774 109.17 109.777 109.173C109.779 109.175 109.781 109.177 109.782 109.179L109.766 109.194C109.765 109.193 109.764 109.192 109.763 109.191C109.762 109.19 109.76 109.189 109.759 109.188C109.755 109.185 109.752 109.185 109.75 109.185C109.747 109.186 109.745 109.188 109.743 109.191L109.68 109.285L109.656 109.269ZM109.749 109.333C109.74 109.327 109.733 109.32 109.729 109.312C109.725 109.304 109.723 109.295 109.724 109.286C109.725 109.277 109.729 109.268 109.735 109.258C109.741 109.249 109.748 109.243 109.756 109.238C109.764 109.234 109.773 109.232 109.782 109.232C109.791 109.232 109.8 109.236 109.808 109.241C109.814 109.245 109.819 109.25 109.823 109.255C109.827 109.26 109.829 109.266 109.83 109.272C109.832 109.278 109.832 109.285 109.83 109.292C109.828 109.299 109.825 109.306 109.82 109.314L109.815 109.32L109.741 109.271L109.751 109.256L109.803 109.29C109.805 109.286 109.806 109.283 109.806 109.279C109.807 109.275 109.806 109.272 109.804 109.268C109.803 109.265 109.8 109.262 109.797 109.26C109.793 109.257 109.789 109.256 109.785 109.256C109.781 109.256 109.777 109.256 109.774 109.258C109.77 109.26 109.767 109.263 109.765 109.266L109.755 109.28C109.752 109.285 109.751 109.289 109.75 109.293C109.75 109.298 109.75 109.302 109.752 109.305C109.754 109.309 109.757 109.312 109.761 109.315C109.764 109.317 109.767 109.318 109.769 109.319C109.772 109.32 109.775 109.32 109.778 109.319C109.78 109.319 109.783 109.318 109.785 109.316L109.807 109.333C109.802 109.337 109.796 109.341 109.79 109.342C109.784 109.344 109.777 109.344 109.77 109.343C109.763 109.341 109.756 109.338 109.749 109.333ZM109.845 109.397C109.836 109.391 109.829 109.384 109.825 109.376C109.822 109.368 109.82 109.359 109.821 109.35C109.822 109.341 109.826 109.332 109.832 109.323C109.838 109.314 109.845 109.307 109.853 109.303C109.861 109.298 109.87 109.296 109.879 109.296C109.888 109.297 109.897 109.3 109.905 109.306C109.913 109.311 109.919 109.317 109.923 109.324C109.927 109.33 109.929 109.337 109.929 109.345C109.929 109.352 109.927 109.359 109.922 109.366L109.899 109.351C109.902 109.346 109.902 109.341 109.901 109.337C109.9 109.332 109.898 109.328 109.893 109.325C109.889 109.323 109.885 109.322 109.881 109.322C109.877 109.322 109.873 109.324 109.869 109.326C109.865 109.329 109.861 109.333 109.857 109.339C109.853 109.345 109.851 109.35 109.85 109.355C109.849 109.36 109.849 109.364 109.85 109.368C109.852 109.372 109.854 109.376 109.858 109.378C109.861 109.38 109.864 109.381 109.867 109.381C109.87 109.382 109.873 109.381 109.876 109.38C109.879 109.379 109.881 109.377 109.884 109.374L109.907 109.389C109.902 109.396 109.896 109.401 109.89 109.404C109.883 109.406 109.876 109.407 109.868 109.406C109.86 109.406 109.853 109.402 109.845 109.397ZM110.007 109.375L109.995 109.394L109.941 109.358L109.954 109.34L110.007 109.375ZM109.98 109.327L110.004 109.343L109.949 109.425C109.948 109.428 109.947 109.43 109.947 109.431C109.947 109.433 109.947 109.434 109.948 109.436C109.949 109.437 109.95 109.438 109.952 109.439C109.953 109.44 109.954 109.441 109.956 109.441C109.957 109.442 109.958 109.442 109.959 109.443L109.95 109.463C109.949 109.463 109.947 109.462 109.944 109.461C109.942 109.46 109.939 109.459 109.936 109.457C109.929 109.453 109.925 109.449 109.922 109.444C109.918 109.439 109.917 109.434 109.917 109.429C109.917 109.424 109.919 109.418 109.923 109.412L109.98 109.327Z" fill="white"/>
<path fill-rule="evenodd" clip-rule="evenodd" d="M234.357 70.395C252.017 70.395 266.333 56.0788 266.333 38.4189C266.333 20.759 252.017 6.44287 234.357 6.44287C216.697 6.44287 202.381 20.759 202.381 38.4189C202.381 56.0788 216.697 70.395 234.357 70.395ZM234.357 58.1488C245.254 58.1488 254.087 49.3154 254.087 38.4189C254.087 27.5223 245.254 18.689 234.357 18.689C223.461 18.689 214.627 27.5223 214.627 38.4189C214.627 49.3154 223.461 58.1488 234.357 58.1488Z" fill="white"/>
</svg>
